<svg xmlns="http://www.w3.org/2000/svg" width="500" height="500" viewBox="0 0 375 374.999991" preserveAspectRatio="xMidYMid meet">
  <defs>
    <clipPath id="rounded-corners">
      <rect x="0" y="0" width="375" height="374.999991" rx="64" ry="64" />
    </clipPath>
  </defs>

  <g clip-path="url(#rounded-corners)">
    <rect x="0" y="0" width="375" height="374.999991" fill="#f48771" />

    <g fill="#ffffff" fill-opacity="1">
      <g transform="translate(122.257072, 190.153845)">
        <path d="M 33.1875 -41.238281 L 49.039062 -41.238281 C 50.898438 -41.238281 54.242188 -41.363281 56.472656 -41.609375 C 63.28125 -42.105469 67.988281 -43.097656 71.332031 -44.582031 C 79.628906 -48.421875 84.707031 -55.851562 84.707031 -64.273438 C 84.707031 -75.542969 76.039062 -83.839844 64.023438 -83.839844 C 54.984375 -83.839844 46.441406 -80.25 38.761719 -73.1875 C 32.695312 -67.742188 27.738281 -61.796875 24.023438 -55.726562 L 13.621094 -55.726562 C 8.421875 -55.726562 4.085938 -51.890625 4.085938 -47.183594 C 4.085938 -43.46875 6.5625 -41.363281 10.898438 -41.238281 L 15.851562 -41.238281 C 10.648438 -29.351562 8.546875 -21.054688 8.546875 -12.136719 C 8.546875 4.582031 20.0625 16.59375 36.039062 16.59375 L 38.144531 16.472656 L 74.921875 16.472656 C 80.25 16.472656 84.457031 12.753906 84.457031 7.925781 C 84.457031 4.210938 82.105469 2.105469 77.648438 1.980469 L 42.476562 1.980469 C 30.09375 1.980469 25.140625 -2.601562 25.140625 -14.117188 C 25.140625 -22.785156 27.617188 -31.332031 33.1875 -41.238281 Z M 42.230469 -55.726562 C 44.582031 -59.070312 46.6875 -61.425781 50.402344 -64.519531 C 54.613281 -67.988281 58.203125 -69.597656 62.042969 -69.597656 C 66.007812 -69.597656 68.980469 -67.121094 68.980469 -63.902344 C 68.980469 -60.929688 66.996094 -58.328125 63.652344 -56.964844 C 61.921875 -56.222656 57.832031 -55.726562 53.996094 -55.726562 Z M 42.230469 -55.726562" />
      </g>
    </g>

    <g fill="#ffffff" fill-opacity="1">
      <g transform="translate(137.075327, 258.240218)">
        <path d="M 109.101562 -68.113281 L 117.648438 -68.113281 C 122.972656 -68.113281 127.183594 -71.949219 127.183594 -76.65625 C 127.183594 -80.371094 124.832031 -82.476562 120.496094 -82.601562 L 108.113281 -82.601562 L 105.757812 -82.476562 C 100.683594 -82.355469 99.320312 -81.734375 97.214844 -78.144531 L 95.726562 -75.542969 L 66.378906 -25.636719 L 66.378906 -49.535156 C 66.378906 -61.054688 65.757812 -66.996094 64.148438 -71.703125 C 61.796875 -78.390625 53.375 -83.46875 44.457031 -83.46875 C 26.378906 -83.46875 10.773438 -67.988281 10.773438 -50.03125 C 10.773438 -37.398438 20.558594 -27.492188 32.816406 -27.492188 C 41.734375 -27.492188 48.050781 -31.457031 48.050781 -37.152344 C 48.050781 -40.246094 44.953125 -43.097656 41.609375 -42.972656 L 36.410156 -42.847656 C 31.207031 -42.726562 27.121094 -46.6875 27.121094 -51.640625 C 27.121094 -60.1875 34.675781 -68.359375 42.601562 -68.359375 C 45.695312 -68.359375 48.421875 -66.253906 49.535156 -62.910156 C 50.402344 -60.558594 50.527344 -58.824219 50.773438 -49.535156 L 51.765625 -8.792969 C 51.890625 -4.828125 52.261719 -3.097656 53.375 -1.238281 C 54.738281 0.992188 57.832031 2.601562 60.929688 2.601562 C 65.511719 2.601562 68.359375 0.496094 71.828125 -5.449219 Z M 109.101562 -68.113281" />
      </g>
    </g>
  </g>
</svg>
